<svg role="img" viewBox="0 0 24 24" xmlns="http://www.w3.org/2000/svg"><title>mdObject icon</title>
<path d="M21.7466 3.0184L19.2517 0.957055C18.4956 0.368098 17.5884 0 16.6056 0C15.2448 0 13.8839 0.588957 12.9767 1.69325L1.25826 14.7975C-0.480611 16.7117 -0.405008 19.5092 1.40946 20.9816L3.90435 23.0429C4.66037 23.6319 5.56761 24 6.55045 24C7.9113 24 9.27214 23.411 10.1793 22.3067L21.8222 9.20245C22.6539 8.31902 23.1075 7.1411 23.0318 5.96319C23.1075 4.8589 22.6539 3.7546 21.7466 3.0184ZM9.12094 21.4233C8.44052 22.1595 7.53328 22.6012 6.62605 22.6012C5.94562 22.6012 5.4164 22.3804 4.96279 22.0123L2.46789 19.8773C1.33386 18.9202 1.33386 17.0061 2.46789 15.7546L8.21371 9.27607L14.8667 14.9448L9.12094 21.4233Z" fill="black"/>
<path d="M2.92151 16.1967C2.31669 17.301 2.24109 18.4053 2.77031 19.2887L4.13116 18.6262C3.82875 17.9636 4.05556 17.301 4.28237 16.8593C4.66038 16.1231 5.41641 15.4605 6.32364 15.0188L5.64322 13.6936C4.43357 14.3562 3.45073 15.166 2.92151 16.1967Z"/>
</svg>
